<mxfile host="app.diagrams.net" agent="Mozilla/5.0 (Windows NT 10.0; Win64; x64) AppleWebKit/537.36 (KHTML, like Gecko) Chrome/127.0.0.0 Safari/537.36" version="24.7.6">
  <diagram name="페이지-1" id="POBYnSwE1h-jC8Fwh_df">
    <mxGraphModel dx="3793" dy="2173" grid="0" gridSize="10" guides="1" tooltips="1" connect="1" arrows="1" fold="1" page="0" pageScale="1" pageWidth="827" pageHeight="1169" math="0" shadow="0">
      <root>
        <mxCell id="0" />
        <mxCell id="1" parent="0" />
        <mxCell id="TNKe9sJZqwaq70S3xL5p-30" value="Extends" style="endArrow=block;endSize=16;endFill=0;html=1;rounded=0;fontSize=12;curved=1;entryX=0.284;entryY=0.089;entryDx=0;entryDy=0;exitX=0.5;exitY=0;exitDx=0;exitDy=0;entryPerimeter=0;" edge="1" parent="1" source="TNKe9sJZqwaq70S3xL5p-58" target="TNKe9sJZqwaq70S3xL5p-74">
          <mxGeometry width="160" relative="1" as="geometry">
            <mxPoint x="-1687" y="-418" as="sourcePoint" />
            <mxPoint x="-1527" y="-418" as="targetPoint" />
          </mxGeometry>
        </mxCell>
        <mxCell id="TNKe9sJZqwaq70S3xL5p-56" value="&lt;div&gt;Adminitrator&lt;br&gt;&lt;/div&gt;" style="shape=umlActor;verticalLabelPosition=bottom;verticalAlign=top;html=1;outlineConnect=0;" vertex="1" parent="1">
          <mxGeometry x="-1860" y="-213" width="30" height="60" as="geometry" />
        </mxCell>
        <mxCell id="TNKe9sJZqwaq70S3xL5p-57" value="&lt;font style=&quot;font-size: 11px;&quot;&gt;Stock&lt;/font&gt;&lt;div style=&quot;font-size: 11px;&quot;&gt;&lt;font style=&quot;font-size: 11px;&quot;&gt;Trading&lt;/font&gt;&lt;/div&gt;&lt;div style=&quot;font-size: 11px;&quot;&gt;&lt;font style=&quot;font-size: 11px;&quot;&gt;system&lt;/font&gt;&lt;/div&gt;" style="shape=umlFrame;whiteSpace=wrap;html=1;pointerEvents=0;width=68;height=49;" vertex="1" parent="1">
          <mxGeometry x="-1766" y="-821" width="835" height="696" as="geometry" />
        </mxCell>
        <mxCell id="TNKe9sJZqwaq70S3xL5p-58" value="주식을 사다" style="ellipse;whiteSpace=wrap;html=1;" vertex="1" parent="1">
          <mxGeometry x="-1559" y="-383" width="140" height="41" as="geometry" />
        </mxCell>
        <mxCell id="TNKe9sJZqwaq70S3xL5p-59" value="주식을 팔다" style="ellipse;whiteSpace=wrap;html=1;" vertex="1" parent="1">
          <mxGeometry x="-1370" y="-383" width="140" height="41" as="geometry" />
        </mxCell>
        <mxCell id="TNKe9sJZqwaq70S3xL5p-60" value="보유주식을 조회하다" style="ellipse;whiteSpace=wrap;html=1;" vertex="1" parent="1">
          <mxGeometry x="-1469" y="-638" width="140" height="41" as="geometry" />
        </mxCell>
        <mxCell id="TNKe9sJZqwaq70S3xL5p-61" value="회원정보를 등록하다." style="ellipse;whiteSpace=wrap;html=1;" vertex="1" parent="1">
          <mxGeometry x="-1176" y="-716" width="140" height="41" as="geometry" />
        </mxCell>
        <mxCell id="TNKe9sJZqwaq70S3xL5p-62" value="회원정보를 수정하다." style="ellipse;whiteSpace=wrap;html=1;" vertex="1" parent="1">
          <mxGeometry x="-1469" y="-744" width="140" height="41" as="geometry" />
        </mxCell>
        <mxCell id="TNKe9sJZqwaq70S3xL5p-63" value="회원 탈퇴하다." style="ellipse;whiteSpace=wrap;html=1;" vertex="1" parent="1">
          <mxGeometry x="-1469" y="-691" width="140" height="41" as="geometry" />
        </mxCell>
        <mxCell id="TNKe9sJZqwaq70S3xL5p-64" value="&lt;font style=&quot;font-size: 11px;&quot;&gt;모든 회원정보를 조회하다&lt;/font&gt;" style="ellipse;whiteSpace=wrap;html=1;" vertex="1" parent="1">
          <mxGeometry x="-1166" y="-211" width="140" height="41" as="geometry" />
        </mxCell>
        <mxCell id="TNKe9sJZqwaq70S3xL5p-65" value="Customer&lt;div&gt;&lt;br&gt;&lt;/div&gt;" style="shape=umlActor;verticalLabelPosition=bottom;verticalAlign=top;html=1;outlineConnect=0;" vertex="1" parent="1">
          <mxGeometry x="-1860" y="-720" width="30" height="60" as="geometry" />
        </mxCell>
        <mxCell id="TNKe9sJZqwaq70S3xL5p-66" value="&lt;span style=&quot;font-size: 10px;&quot;&gt;주식정보를 업데이트하다.&lt;/span&gt;" style="ellipse;whiteSpace=wrap;html=1;" vertex="1" parent="1">
          <mxGeometry x="-1166" y="-281" width="140" height="41" as="geometry" />
        </mxCell>
        <mxCell id="TNKe9sJZqwaq70S3xL5p-68" value="Generalization" style="endArrow=block;endSize=16;endFill=0;html=1;rounded=0;fontSize=12;curved=1;" edge="1" parent="1">
          <mxGeometry width="160" relative="1" as="geometry">
            <mxPoint x="-1844" y="-230" as="sourcePoint" />
            <mxPoint x="-1844" y="-622" as="targetPoint" />
          </mxGeometry>
        </mxCell>
        <mxCell id="TNKe9sJZqwaq70S3xL5p-74" value="주식을 거래하다." style="ellipse;whiteSpace=wrap;html=1;" vertex="1" parent="1">
          <mxGeometry x="-1469" y="-472" width="140" height="41" as="geometry" />
        </mxCell>
        <mxCell id="TNKe9sJZqwaq70S3xL5p-75" value="Extends" style="endArrow=block;endSize=16;endFill=0;html=1;rounded=0;fontSize=12;curved=1;entryX=1;entryY=1;entryDx=0;entryDy=0;exitX=0.5;exitY=0;exitDx=0;exitDy=0;" edge="1" parent="1" source="TNKe9sJZqwaq70S3xL5p-59" target="TNKe9sJZqwaq70S3xL5p-74">
          <mxGeometry width="160" relative="1" as="geometry">
            <mxPoint x="-1209" y="-408" as="sourcePoint" />
            <mxPoint x="-1111" y="-456" as="targetPoint" />
          </mxGeometry>
        </mxCell>
        <mxCell id="TNKe9sJZqwaq70S3xL5p-78" value="" style="endArrow=open;endFill=1;endSize=12;html=1;rounded=0;fontSize=12;curved=1;entryX=0;entryY=0.5;entryDx=0;entryDy=0;" edge="1" parent="1" target="TNKe9sJZqwaq70S3xL5p-62">
          <mxGeometry width="160" relative="1" as="geometry">
            <mxPoint x="-1808" y="-691" as="sourcePoint" />
            <mxPoint x="-1669" y="-690.53" as="targetPoint" />
          </mxGeometry>
        </mxCell>
        <mxCell id="TNKe9sJZqwaq70S3xL5p-79" value="" style="endArrow=open;endFill=1;endSize=12;html=1;rounded=0;fontSize=12;curved=1;entryX=0;entryY=0.5;entryDx=0;entryDy=0;" edge="1" parent="1" target="TNKe9sJZqwaq70S3xL5p-63">
          <mxGeometry width="160" relative="1" as="geometry">
            <mxPoint x="-1809" y="-691" as="sourcePoint" />
            <mxPoint x="-1661" y="-646" as="targetPoint" />
          </mxGeometry>
        </mxCell>
        <mxCell id="TNKe9sJZqwaq70S3xL5p-80" value="" style="endArrow=open;endFill=1;endSize=12;html=1;rounded=0;fontSize=12;curved=1;entryX=0;entryY=0.5;entryDx=0;entryDy=0;" edge="1" parent="1" target="TNKe9sJZqwaq70S3xL5p-60">
          <mxGeometry width="160" relative="1" as="geometry">
            <mxPoint x="-1812" y="-690" as="sourcePoint" />
            <mxPoint x="-1618" y="-624" as="targetPoint" />
          </mxGeometry>
        </mxCell>
        <mxCell id="TNKe9sJZqwaq70S3xL5p-81" value="" style="endArrow=open;endFill=1;endSize=12;html=1;rounded=0;fontSize=12;curved=1;entryX=0;entryY=0;entryDx=0;entryDy=0;" edge="1" parent="1" target="TNKe9sJZqwaq70S3xL5p-74">
          <mxGeometry width="160" relative="1" as="geometry">
            <mxPoint x="-1811" y="-690" as="sourcePoint" />
            <mxPoint x="-1644.5" y="-550.03" as="targetPoint" />
          </mxGeometry>
        </mxCell>
        <mxCell id="TNKe9sJZqwaq70S3xL5p-84" value="include" style="endArrow=open;endSize=12;dashed=1;html=1;rounded=0;fontSize=12;curved=1;entryX=0.5;entryY=0;entryDx=0;entryDy=0;exitX=1;exitY=0.5;exitDx=0;exitDy=0;" edge="1" parent="1" source="TNKe9sJZqwaq70S3xL5p-74" target="TNKe9sJZqwaq70S3xL5p-66">
          <mxGeometry width="160" relative="1" as="geometry">
            <mxPoint x="-1327" y="-367" as="sourcePoint" />
            <mxPoint x="-1167" y="-367" as="targetPoint" />
          </mxGeometry>
        </mxCell>
        <mxCell id="TNKe9sJZqwaq70S3xL5p-87" value="" style="endArrow=open;endFill=1;endSize=12;html=1;rounded=0;fontSize=12;curved=1;entryX=0;entryY=0.5;entryDx=0;entryDy=0;" edge="1" parent="1" target="TNKe9sJZqwaq70S3xL5p-66">
          <mxGeometry width="160" relative="1" as="geometry">
            <mxPoint x="-1805" y="-182" as="sourcePoint" />
            <mxPoint x="-1464" y="-361" as="targetPoint" />
          </mxGeometry>
        </mxCell>
        <mxCell id="TNKe9sJZqwaq70S3xL5p-88" value="" style="endArrow=open;endFill=1;endSize=12;html=1;rounded=0;fontSize=12;curved=1;entryX=0;entryY=0.5;entryDx=0;entryDy=0;" edge="1" parent="1" target="TNKe9sJZqwaq70S3xL5p-64">
          <mxGeometry width="160" relative="1" as="geometry">
            <mxPoint x="-1809" y="-182" as="sourcePoint" />
            <mxPoint x="-1341" y="-347.5" as="targetPoint" />
          </mxGeometry>
        </mxCell>
        <mxCell id="TNKe9sJZqwaq70S3xL5p-89" value="include" style="endArrow=open;endSize=12;dashed=1;html=1;rounded=0;fontSize=12;curved=1;entryX=0;entryY=0;entryDx=0;entryDy=0;exitX=1;exitY=0.5;exitDx=0;exitDy=0;" edge="1" parent="1" source="TNKe9sJZqwaq70S3xL5p-62" target="TNKe9sJZqwaq70S3xL5p-61">
          <mxGeometry width="160" relative="1" as="geometry">
            <mxPoint x="-1261" y="-624.5" as="sourcePoint" />
            <mxPoint x="-971" y="-470.5" as="targetPoint" />
          </mxGeometry>
        </mxCell>
        <mxCell id="TNKe9sJZqwaq70S3xL5p-90" value="include" style="endArrow=open;endSize=12;dashed=1;html=1;rounded=0;fontSize=12;curved=1;entryX=0;entryY=1;entryDx=0;entryDy=0;exitX=1;exitY=0.5;exitDx=0;exitDy=0;" edge="1" parent="1" source="TNKe9sJZqwaq70S3xL5p-63" target="TNKe9sJZqwaq70S3xL5p-61">
          <mxGeometry width="160" relative="1" as="geometry">
            <mxPoint x="-1319" y="-654.5" as="sourcePoint" />
            <mxPoint x="-1151" y="-584.5" as="targetPoint" />
          </mxGeometry>
        </mxCell>
        <mxCell id="TNKe9sJZqwaq70S3xL5p-102" value="&lt;font style=&quot;font-size: 10px;&quot;&gt;실시간 주식정보를 확인하다.&lt;/font&gt;" style="ellipse;whiteSpace=wrap;html=1;" vertex="1" parent="1">
          <mxGeometry x="-1559" y="-330" width="140" height="41" as="geometry" />
        </mxCell>
        <mxCell id="TNKe9sJZqwaq70S3xL5p-103" value="" style="endArrow=open;endFill=1;endSize=12;html=1;rounded=0;fontSize=12;curved=1;entryX=0;entryY=0.5;entryDx=0;entryDy=0;" edge="1" parent="1" target="TNKe9sJZqwaq70S3xL5p-102">
          <mxGeometry width="160" relative="1" as="geometry">
            <mxPoint x="-1810" y="-687" as="sourcePoint" />
            <mxPoint x="-1630" y="-406.5" as="targetPoint" />
          </mxGeometry>
        </mxCell>
        <mxCell id="TNKe9sJZqwaq70S3xL5p-104" value="include" style="endArrow=open;endSize=12;dashed=1;html=1;rounded=0;fontSize=12;curved=1;entryX=0.5;entryY=1;entryDx=0;entryDy=0;" edge="1" parent="1" source="TNKe9sJZqwaq70S3xL5p-74" target="TNKe9sJZqwaq70S3xL5p-60">
          <mxGeometry width="160" relative="1" as="geometry">
            <mxPoint x="-1351" y="-660.5" as="sourcePoint" />
            <mxPoint x="-1123" y="-494.5" as="targetPoint" />
          </mxGeometry>
        </mxCell>
        <mxCell id="TNKe9sJZqwaq70S3xL5p-113" value="" style="group" vertex="1" connectable="0" parent="1">
          <mxGeometry x="-908" y="-817" width="300" height="168" as="geometry" />
        </mxCell>
        <mxCell id="TNKe9sJZqwaq70S3xL5p-29" value="include" style="endArrow=open;endSize=12;dashed=1;html=1;rounded=0;fontSize=12;curved=1;" edge="1" parent="TNKe9sJZqwaq70S3xL5p-113">
          <mxGeometry width="160" relative="1" as="geometry">
            <mxPoint x="112" y="25" as="sourcePoint" />
            <mxPoint x="272" y="25" as="targetPoint" />
          </mxGeometry>
        </mxCell>
        <mxCell id="TNKe9sJZqwaq70S3xL5p-31" value="Generalization" style="endArrow=block;endSize=16;endFill=0;html=1;rounded=0;fontSize=12;curved=1;" edge="1" parent="TNKe9sJZqwaq70S3xL5p-113">
          <mxGeometry width="160" relative="1" as="geometry">
            <mxPoint x="109" y="92" as="sourcePoint" />
            <mxPoint x="269" y="92" as="targetPoint" />
          </mxGeometry>
        </mxCell>
        <mxCell id="TNKe9sJZqwaq70S3xL5p-69" value="" style="endArrow=open;endFill=1;endSize=12;html=1;rounded=0;fontSize=12;curved=1;" edge="1" parent="TNKe9sJZqwaq70S3xL5p-113">
          <mxGeometry width="160" relative="1" as="geometry">
            <mxPoint x="109" y="129.75" as="sourcePoint" />
            <mxPoint x="268" y="129.75" as="targetPoint" />
          </mxGeometry>
        </mxCell>
        <mxCell id="TNKe9sJZqwaq70S3xL5p-76" value="Extends" style="endArrow=block;endSize=16;endFill=0;html=1;rounded=0;fontSize=12;curved=1;" edge="1" parent="TNKe9sJZqwaq70S3xL5p-113">
          <mxGeometry width="160" relative="1" as="geometry">
            <mxPoint x="111" y="57" as="sourcePoint" />
            <mxPoint x="271" y="57" as="targetPoint" />
          </mxGeometry>
        </mxCell>
        <mxCell id="TNKe9sJZqwaq70S3xL5p-106" value="&lt;font style=&quot;font-size: 12px;&quot;&gt;Association&lt;/font&gt;" style="text;strokeColor=none;fillColor=none;html=1;align=center;verticalAlign=middle;whiteSpace=wrap;rounded=0;fontSize=16;" vertex="1" parent="TNKe9sJZqwaq70S3xL5p-113">
          <mxGeometry x="18" y="111" width="60" height="30" as="geometry" />
        </mxCell>
        <mxCell id="TNKe9sJZqwaq70S3xL5p-107" value="&lt;span style=&quot;color: rgb(0, 0, 0); font-family: Helvetica; font-size: 12px; font-style: normal; font-variant-ligatures: normal; font-variant-caps: normal; font-weight: 400; letter-spacing: normal; orphans: 2; text-align: center; text-indent: 0px; text-transform: none; widows: 2; word-spacing: 0px; -webkit-text-stroke-width: 0px; white-space: nowrap; background-color: rgb(255, 255, 255); text-decoration-thickness: initial; text-decoration-style: initial; text-decoration-color: initial; display: inline !important; float: none;&quot;&gt;Generalization&lt;/span&gt;" style="text;whiteSpace=wrap;html=1;" vertex="1" parent="TNKe9sJZqwaq70S3xL5p-113">
          <mxGeometry x="18" y="76.5" width="105" height="36" as="geometry" />
        </mxCell>
        <mxCell id="TNKe9sJZqwaq70S3xL5p-108" value="&lt;span style=&quot;color: rgb(0, 0, 0); font-family: Helvetica; font-size: 12px; font-style: normal; font-variant-ligatures: normal; font-variant-caps: normal; font-weight: 400; letter-spacing: normal; orphans: 2; text-align: center; text-indent: 0px; text-transform: none; widows: 2; word-spacing: 0px; -webkit-text-stroke-width: 0px; white-space: nowrap; background-color: rgb(255, 255, 255); text-decoration-thickness: initial; text-decoration-style: initial; text-decoration-color: initial; display: inline !important; float: none;&quot;&gt;Extends&lt;/span&gt;" style="text;whiteSpace=wrap;html=1;" vertex="1" parent="TNKe9sJZqwaq70S3xL5p-113">
          <mxGeometry x="18" y="45" width="71" height="36" as="geometry" />
        </mxCell>
        <mxCell id="TNKe9sJZqwaq70S3xL5p-109" value="&lt;span style=&quot;color: rgb(0, 0, 0); font-family: Helvetica; font-size: 12px; font-style: normal; font-variant-ligatures: normal; font-variant-caps: normal; font-weight: 400; letter-spacing: normal; orphans: 2; text-align: center; text-indent: 0px; text-transform: none; widows: 2; word-spacing: 0px; -webkit-text-stroke-width: 0px; white-space: nowrap; background-color: rgb(255, 255, 255); text-decoration-thickness: initial; text-decoration-style: initial; text-decoration-color: initial; display: inline !important; float: none;&quot;&gt;include&lt;/span&gt;" style="text;whiteSpace=wrap;html=1;" vertex="1" parent="TNKe9sJZqwaq70S3xL5p-113">
          <mxGeometry x="18" y="9" width="66" height="36" as="geometry" />
        </mxCell>
        <mxCell id="TNKe9sJZqwaq70S3xL5p-110" style="edgeStyle=none;curved=1;rounded=0;orthogonalLoop=1;jettySize=auto;html=1;exitX=0.5;exitY=1;exitDx=0;exitDy=0;fontSize=12;startSize=8;endSize=8;" edge="1" parent="TNKe9sJZqwaq70S3xL5p-113" source="TNKe9sJZqwaq70S3xL5p-106" target="TNKe9sJZqwaq70S3xL5p-106">
          <mxGeometry relative="1" as="geometry" />
        </mxCell>
        <mxCell id="TNKe9sJZqwaq70S3xL5p-112" value="" style="whiteSpace=wrap;html=1;fillColor=none;" vertex="1" parent="TNKe9sJZqwaq70S3xL5p-113">
          <mxGeometry width="300" height="168" as="geometry" />
        </mxCell>
      </root>
    </mxGraphModel>
  </diagram>
</mxfile>
